# Blender 5.1.0
# www.blender.org
mtllib Untitled.mtl
o tripo_node_832f6869-d66a-4a38-b561-9f0b52d2c5bf
v -0.029657 0.375918 -0.032303
v 0.013678 0.181618 -0.139299
v -0.048496 0.195171 0.042175
v -0.034505 0.057035 -0.221202
v -0.041347 0.357861 0.035014
v -0.102348 -0.137260 -0.174178
v 0.058379 -0.141611 0.245893
v 0.084305 0.358657 0.017099
v 0.029187 -0.273226 0.129732
v -0.059678 -0.392983 0.139137
v -0.047602 0.135342 0.147653
v -0.053030 -0.284927 -0.013901
v 0.001183 0.213798 -0.041545
v 0.015568 -0.364860 0.158492
v 0.111227 -0.292604 -0.134460
v -0.013992 -0.287106 -0.094055
v -0.056801 0.025700 0.215759
v 0.085617 -0.305871 0.091161
v 0.151339 0.208998 0.143609
v 0.042564 -0.305812 -0.247915
v 0.034188 -0.255569 0.263445
v 0.073402 -0.308221 -0.082248
v 0.140029 0.110446 0.237889
v 0.062497 -0.258508 -0.278880
v 0.083523 -0.229172 -0.200397
v 0.207000 -0.016008 0.293486
v 0.087137 -0.349253 0.321823
v 0.087686 -0.347090 -0.320606
v 0.067040 -0.121248 -0.259280
v 0.119556 -0.376046 0.275776
v 0.107073 -0.286396 0.124070
v 0.115664 -0.235253 0.195122
v 0.172914 0.248814 0.026333
v 0.182623 0.252671 -0.023068
v 0.260634 0.039823 -0.276059
v 0.216849 -0.245212 -0.182550
v 0.184532 -0.362870 -0.272755
v 0.217167 -0.297389 -0.090172
v 0.236523 -0.249539 0.189886
v 0.296043 0.110175 -0.244410
v 0.217468 -0.214451 -0.224286
v 0.226457 -0.292466 0.093809
v 0.248827 -0.120043 0.282267
v 0.231019 -0.214647 0.220344
v 0.231015 0.220073 -0.120441
v 0.222000 -0.286914 -0.277131
v 0.204195 -0.308136 0.295655
v 0.258986 -0.093186 -0.283685
v 0.340575 -0.143805 -0.229312
v 0.300287 0.145905 0.198423
v 0.302939 0.008132 0.273457
v 0.309859 0.227509 0.004264
v 0.353041 -0.234874 0.008307
v 0.307358 -0.170555 0.229158
v 0.381336 -0.165171 -0.140873
v 0.337322 -0.040825 -0.234074
v 0.370916 0.140517 -0.122960
v 0.395707 0.082133 0.223244
v 0.381402 -0.003081 -0.240005
v 0.397125 -0.036135 0.161015
v 0.398073 -0.129299 0.164407
v 0.397461 0.158126 0.027332
v 0.411517 0.083552 -0.183491
v 0.386862 -0.048934 -0.061894
v 0.382614 -0.040379 0.052912
v 0.399352 0.097663 0.103810
v 0.408146 -0.006137 -0.131853
v 0.447570 -0.058838 0.086084
v 0.456578 -0.103857 0.022333
v 0.454809 0.040024 -0.035151
v 0.463285 -0.044307 -0.085477
v 0.446867 -0.019262 0.103247
v 0.500270 -0.068554 -0.045459
v 0.506374 0.010876 -0.002746
v -0.070837 -0.383999 -0.155917
v -0.083386 -0.338388 0.112364
v -0.116460 -0.203684 -0.109140
v -0.072491 -0.302206 0.156776
v -0.065650 -0.300448 -0.155809
v -0.119214 -0.166335 0.143608
v -0.224657 0.159653 -0.028411
v -0.229723 -0.115603 -0.006400
v -0.219612 0.026553 0.052750
v -0.182591 0.095579 -0.001892
v -0.226049 -0.030129 -0.037563
v -0.215414 0.181669 0.027811
v -0.220144 -0.108202 0.043974
v -0.227833 0.035219 -0.001264
v -0.260481 -0.056857 0.067376
v -0.384047 -0.310517 0.084065
v -0.402991 -0.074513 0.096838
v -0.420351 0.050005 -0.004641
v -0.395836 -0.208855 0.163986
v -0.355315 -0.202469 0.000862
v -0.398356 0.043771 0.161718
v -0.401952 -0.068760 0.030462
v -0.381455 0.141412 0.114977
v -0.453233 0.152746 0.045119
v -0.474689 -0.274714 0.066125
v -0.488595 0.150805 0.129517
v -0.482323 -0.247209 0.132490
v -0.499729 0.090386 0.068637
vn -0.2042 0.8083 -0.5522
vn -0.3381 0.7593 -0.5561
vn -0.2726 0.4379 0.8567
vn -0.4630 0.3339 -0.8211
vn -0.2954 0.6611 0.6897
vn -0.6083 -0.2795 -0.7429
vn -0.2926 -0.3340 0.8960
vn 0.4703 0.8345 0.2872
vn -0.4555 -0.4251 0.7822
vn -0.3944 -0.9144 0.0916
vn -0.4635 0.6511 0.6010
vn -0.4910 -0.8700 0.0441
vn -0.2140 0.5166 -0.8290
vn 0.4159 -0.6310 0.6549
vn 0.0688 -0.8453 -0.5298
vn -0.6765 -0.7310 -0.0897
vn -0.4995 0.1991 0.8431
vn 0.1242 -0.9916 -0.0349
vn -0.0507 0.8567 0.5133
vn -0.8761 -0.3640 0.3160
vn -0.9236 0.3729 0.0888
vn 0.0772 -0.9934 0.0853
vn -0.1149 0.5236 0.8442
vn -0.5717 0.5904 -0.5697
vn -0.5134 -0.5396 -0.6673
vn -0.0325 0.1365 0.9901
vn -0.4649 -0.4049 0.7874
vn -0.3612 -0.5569 -0.7479
vn -0.2476 -0.2262 -0.9421
vn -0.0551 -0.9861 -0.1570
vn 0.1342 -0.8072 0.5748
vn -0.4832 -0.6846 0.5458
vn 0.2992 0.8679 0.3964
vn 0.5643 0.8081 -0.1688
vn 0.0851 0.2071 -0.9746
vn 0.5168 -0.8320 -0.2017
vn 0.4261 -0.9033 -0.0498
vn 0.2958 -0.9267 -0.2320
vn 0.5732 -0.7873 0.2273
vn 0.2310 0.5807 -0.7806
vn 0.4525 -0.2708 -0.8496
vn 0.3040 -0.9250 0.2279
vn 0.1992 -0.3045 0.9314
vn 0.3294 -0.3108 0.8916
vn 0.1473 0.8820 -0.4476
vn 0.8141 0.0465 -0.5788
vn 0.7064 -0.1859 0.6830
vn 0.1924 -0.1659 -0.9672
vn 0.6014 -0.4051 -0.6886
vn 0.2873 0.7294 0.6209
vn 0.3715 0.1283 0.9195
vn 0.4107 0.9111 0.0349
vn 0.6342 -0.7726 0.0297
vn 0.5395 -0.5052 0.6735
vn 0.7181 -0.6010 -0.3510
vn 0.5982 -0.2121 -0.7728
vn 0.6750 0.6696 -0.3098
vn 0.7363 0.3424 0.5836
vn 0.6673 -0.2890 -0.6864
vn 0.8214 -0.0091 0.5703
vn 0.7683 -0.3836 0.5125
vn 0.7688 0.6283 0.1190
vn 0.8839 0.3836 -0.2675
vn 0.7085 0.0465 0.7042
vn 0.9050 -0.0602 -0.4211
vn 0.8454 0.4443 0.2964
vn 0.8800 0.0915 -0.4661
vn 0.9429 -0.1670 0.2882
vn 0.8374 -0.5333 0.1197
vn 0.8200 0.5227 -0.2331
vn 0.9068 -0.0363 -0.4200
vn 0.8374 0.1063 0.5362
vn 0.9114 -0.1252 -0.3921
vn 0.9780 0.1823 0.1015
vn -0.5862 -0.7705 -0.2505
vn -0.8092 -0.0023 -0.5876
vn -0.6491 -0.5960 -0.4726
vn -0.6211 0.5967 0.5081
vn -0.7427 0.5132 -0.4301
vn -0.6288 -0.4595 0.6272
vn -0.8164 -0.1028 -0.5683
vn -0.3922 -0.6526 -0.6483
vn -0.1707 0.5597 0.8109
vn -0.9044 0.4101 -0.1178
vn -0.5346 0.0638 -0.8427
vn -0.7570 0.1472 0.6366
vn -0.0760 -0.6051 0.7925
vn -0.2749 0.7589 -0.5904
vn 0.4395 -0.0372 0.8975
vn 0.2527 -0.9670 0.0309
vn -0.6385 0.0053 0.7696
vn -0.3845 0.0523 -0.9216
vn 0.1090 -0.0856 0.9904
vn -0.0392 -0.3109 -0.9497
vn -0.0332 -0.1054 0.9939
vn -0.7106 -0.1491 -0.6876
vn 0.4114 0.8018 0.4334
vn -0.2621 0.7958 -0.5459
vn -0.7526 -0.5166 -0.4084
vn -0.6202 0.5766 0.5319
vn -0.8051 -0.2227 0.5498
vn -0.9793 -0.0850 -0.1838
vt 0.222308 0.165610
vt 0.149360 0.167985
vt 0.140064 0.078000
vt 0.099570 0.103905
vt 0.118657 0.225137
vt 0.099365 0.229248
vt 0.252494 0.576864
vt 0.175448 0.501245
vt 0.201373 0.460621
vt 0.283218 0.556906
vt 0.250752 0.462179
vt 0.209686 0.402357
vt 0.317394 0.430304
vt 0.321639 0.492260
vt 0.235019 0.655547
vt 0.303955 0.630859
vt 0.329289 0.665521
vt 0.243329 0.711168
vt 0.343205 0.695067
vt 0.388672 0.690918
vt 0.372245 0.544417
vt 0.385365 0.492046
vt 0.427793 0.542902
vt 0.485386 0.538832
vt 0.472599 0.495510
vt 0.341311 0.642567
vt 0.326283 0.611136
vt 0.019331 0.666057
vt 0.007936 0.618092
vt 0.063500 0.632554
vt 0.057122 0.662998
vt 0.020996 0.697266
vt 0.559570 0.190918
vt 0.525930 0.149982
vt 0.583826 0.133840
vt 0.574679 0.061774
vt 0.647682 0.064337
vt 0.635394 0.138699
vt 0.687870 0.124652
vt 0.698975 0.179443
vt 0.080260 0.635017
vt 0.066552 0.597717
vt 0.132420 0.642290
vt 0.165192 0.557564
vt 0.196944 0.612429
vt 0.185276 0.683693
vt 0.105977 0.714882
vt 0.542143 0.405943
vt 0.580145 0.445931
vt 0.557959 0.457574
vt 0.562040 0.521871
vt 0.491072 0.453986
vt 0.502197 0.407715
vt 0.500253 0.494781
vt 0.495326 0.520648
vt 0.532070 0.594919
vt 0.579965 0.635333
vt 0.474365 0.625977
vt 0.535357 0.675006
vt 0.034091 0.893554
vt 0.081811 0.941916
vt 0.027880 0.939196
vt 0.090765 0.848496
vt 0.112604 0.916466
vt 0.908015 0.234437
vt 0.986367 0.195964
vt 0.958533 0.242896
vt 0.925985 0.291869
vt 0.990723 0.301270
vt 0.997527 0.321042
vt 0.863945 0.293748
vt 0.819914 0.254936
vt 0.807373 0.227295
vt 0.851785 0.223447
vt 0.780029 0.220947
vt 0.891022 0.194252
vt 0.959076 0.128075
vt 0.906916 0.138058
vt 0.907180 0.102046
vt 0.950019 0.092726
vt 0.918009 0.049608
vt 0.162753 0.968656
vt 0.118063 0.967516
vt 0.180144 0.932025
vt 0.187256 1.000000
vt 0.226015 0.986113
vt 0.229736 0.966553
vt 0.196159 0.916700
vt 0.189688 0.840462
vt 0.079698 0.277750
vt 0.056418 0.266654
vt 0.064202 0.245659
vt 0.019531 0.265625
vt 0.065818 0.322348
vt 0.137451 0.272705
vt 0.082085 0.227637
vt 0.847900 0.055908
vt 0.874861 0.058955
vt 0.809036 0.109421
vt 0.863738 0.102343
vt 0.805792 0.158292
vt 0.729978 0.119021
vt 0.122628 0.387468
vt 0.109538 0.325618
vt 0.164062 0.316650
vt 0.193353 0.365607
vt 0.100129 0.375730
vt 0.090305 0.411289
vt 0.079006 0.452105
vt 0.066451 0.516347
vt 0.043945 0.449951
vt 0.134471 0.450922
vt 0.146220 0.510449
vt 0.089778 0.559459
vt 0.044434 0.563965
vt 0.704823 0.836426
vt 0.628043 0.766115
vt 0.701721 0.697918
vt 0.633080 0.656284
vt 0.702325 0.623095
vt 0.632687 0.514477
vt 0.706782 0.548664
vt 0.784405 0.670758
vt 0.825231 0.736131
vt 0.810059 0.775391
vt 0.066252 0.030947
vt 0.159668 0.014893
vt 0.094029 0.058445
vt 0.489633 0.141132
vt 0.431605 0.100167
vt 0.534424 0.037842
vt 0.567241 0.229550
vt 0.664646 0.302089
vt 0.628194 0.326037
vt 0.761394 0.237185
vt 0.713246 0.281569
vt 0.756939 0.177885
vt 0.480856 0.261793
vt 0.419678 0.286377
vt 0.396249 0.246927
vt 0.407057 0.181679
vt 0.399452 0.220183
vt 0.477720 0.213549
vt 0.484863 0.177002
vt 0.470947 0.166016
vt 0.414333 0.161104
vt 0.394939 0.145507
vt 0.363321 0.166501
vt 0.187642 0.006555
vt 0.168634 0.036609
vt 0.167725 0.008789
vt 0.254771 0.030095
vt 0.231711 0.070028
vt 0.189620 0.074354
vt 0.240005 0.892338
vt 0.365181 0.814548
vt 0.403742 0.866107
vt 0.274869 0.922871
vt 0.275046 0.762359
vt 0.398287 0.962360
vt 0.353546 0.278227
vt 0.315844 0.351332
vt 0.215039 0.303802
vt 0.336553 0.216480
vt 0.383789 0.266602
vt 0.219648 0.231755
vt 0.271973 0.176025
vt 0.206650 0.180272
vt 0.874645 0.620930
vt 0.867195 0.528279
vt 0.954897 0.543990
vt 0.940303 0.587209
vt 0.980469 0.541016
vt 0.986915 0.574844
vt 0.897955 0.646168
vt 0.967797 0.659902
vt 0.909777 0.716837
vt 0.982539 0.724742
vt 0.850585 0.621299
vt 0.831470 0.659196
vt 0.922319 0.777071
vt 0.986333 0.796225
vt 0.707520 0.883301
vt 0.698493 0.942890
vt 0.658072 0.862978
vt 0.758545 0.929443
vt 0.737549 0.959229
vt 0.629370 0.941482
vt 0.638512 0.853280
vt 0.568934 0.943952
vt 0.495466 0.980396
vt 0.495690 0.895009
vt 0.572234 0.831336
vt 0.488037 0.811279
vt 0.666016 0.838623
vt 0.669189 0.818604
vt 0.821533 0.424561
vt 0.858782 0.484084
vt 0.808806 0.484053
vt 0.835292 0.533082
vt 0.769271 0.538974
vt 0.785592 0.468690
vt 0.725119 0.512563
vt 0.796984 0.420219
vt 0.737420 0.439900
vt 0.756836 0.408691
vt 0.689023 0.435219
vt 0.645508 0.483643
vt 0.602600 0.425638
vt 0.640684 0.410794
vt 0.946365 0.439298
vt 0.932535 0.472077
vt 0.925633 0.386327
vt 0.877144 0.434491
vt 0.869391 0.353605
vt 0.897774 0.313995
vt 0.816125 0.396004
vt 0.783978 0.345630
vt 0.488037 0.418457
vt 0.436294 0.430820
vt 0.509433 0.346301
vt 0.517293 0.400749
vt 0.379657 0.382319
vt 0.439495 0.304416
vt 0.349854 0.307617
vt 0.567328 0.343103
vt 0.292228 0.150831
vt 0.246451 0.093955
vt 0.298790 0.086602
vt 0.311221 0.121334
vt 0.375808 0.122562
vt 0.328230 0.062321
vt 0.374020 0.069073
vt 0.788845 0.061694
vt 0.835956 0.028434
vt 0.844223 0.050959
vt 0.060269 0.135577
vt 0.035093 0.107790
vt 0.095100 0.078719
vt 0.055343 0.054747
vt 0.893554 0.860895
vt 0.836782 0.871187
vt 0.848877 0.803711
vt 0.823240 0.953223
vt 0.905016 0.931804
vt 0.877678 0.984101
vt 0.951904 0.948975
vt 0.957764 0.928711
vt 0.942242 0.869148
vt 0.985596 0.912842
vt 0.772637 0.941202
vt 0.748420 0.989942
vt 0.457568 0.681488
vt 0.514227 0.681998
vt 0.487346 0.721366
vt 0.427059 0.722564
vt 0.484321 0.748441
vt 0.437384 0.800264
vt 0.389328 0.770919
vt 0.373291 0.718994
vt 0.405254 0.832758
vt 0.457690 0.845776
vt 0.429124 0.899731
vt 0.493818 0.787544
vt 0.518788 0.762470
vt 0.739919 0.103920
vt 0.712596 0.070218
vt 0.780332 0.085100
vt 0.583316 0.045348
vt 0.599988 0.019478
vt 0.621582 0.045410
vt 0.997441 0.338733
vt 0.977263 0.379374
s 1
usemtl tripo_mat_832f6869-d66a-4a38-b561-9f0b52d2c5bf
f 96/1/96 94/2/94 99/3/99
f 99/3/99 94/2/94 90/4/90
f 82/5/82 90/4/90 94/2/94
f 90/4/90 82/5/82 87/6/87
f 96/7/96 99/8/99 101/9/101
f 91/10/91 96/7/96 101/9/101
f 93/11/93 91/10/91 101/9/101
f 101/9/101 99/8/99 90/12/90
f 101/9/101 90/12/90 93/11/93
f 90/12/90 87/13/87 93/11/93
f 93/11/93 87/13/87 89/14/89
f 93/11/93 89/14/89 91/10/91
f 82/15/82 94/16/94 96/17/96
f 82/15/82 96/17/96 85/18/85
f 92/19/92 96/17/96 102/20/102
f 85/18/85 96/17/96 92/19/92
f 89/21/89 87/22/87 83/23/83
f 83/23/83 87/22/87 17/24/17
f 17/24/17 87/22/87 80/25/80
f 95/26/95 91/27/91 89/21/89
f 75/28/75 22/29/22 16/30/16
f 75/28/75 16/30/16 79/31/79
f 79/31/79 15/32/15 75/28/75
f 16/33/16 12/34/12 77/35/77
f 12/34/12 82/36/82 77/35/77
f 77/35/77 82/36/82 85/37/85
f 6/38/6 77/35/77 85/37/85
f 6/38/6 4/39/4 29/40/29
f 87/41/87 82/42/82 80/43/80
f 12/44/12 80/43/80 82/42/82
f 80/43/80 12/44/12 9/45/9
f 80/43/80 9/45/9 7/46/7
f 80/43/80 7/46/7 17/47/17
f 28/48/28 20/49/20 24/50/24
f 24/50/24 20/49/20 25/51/25
f 28/48/28 46/52/46 37/53/37
f 46/52/46 28/48/28 24/50/24
f 46/52/46 24/50/24 41/54/41
f 24/50/24 25/51/25 41/55/41
f 41/55/41 25/51/25 29/56/29
f 29/56/29 25/51/25 6/57/6
f 35/58/35 29/56/29 4/59/4
f 37/60/37 20/61/20 28/62/28
f 37/60/37 36/63/36 20/61/20
f 36/63/36 25/64/25 20/61/20
f 15/65/15 79/66/79 16/67/16
f 16/67/16 25/68/25 15/65/15
f 25/68/25 16/67/16 77/69/77
f 77/69/77 6/70/6 25/68/25
f 25/68/25 36/71/36 15/65/15
f 36/71/36 38/72/38 15/65/15
f 18/73/18 22/74/22 38/72/38
f 18/73/18 38/72/38 42/75/42
f 38/72/38 22/74/22 15/65/15
f 15/65/15 22/76/22 75/77/75
f 16/78/16 22/79/22 12/80/12
f 12/80/12 22/79/22 18/81/18
f 9/82/9 12/83/12 18/84/18
f 9/82/9 18/84/18 76/85/76
f 10/86/10 18/84/18 14/87/14
f 14/87/14 18/84/18 31/88/31
f 18/84/18 42/89/42 31/88/31
f 78/90/78 76/91/76 10/92/10
f 10/92/10 76/91/76 18/93/18
f 9/94/9 76/91/76 78/90/78
f 9/95/9 78/90/78 14/96/14
f 14/96/14 78/90/78 10/92/10
f 42/97/42 39/98/39 31/99/31
f 31/99/31 39/98/39 32/100/32
f 32/100/32 9/101/9 31/99/31
f 31/99/31 9/101/9 14/102/14
f 30/103/30 21/104/21 32/105/32
f 30/103/30 32/105/32 39/106/39
f 27/107/27 21/104/21 30/103/30
f 30/103/30 39/106/39 47/108/47
f 27/107/27 30/103/30 47/108/47
f 27/107/27 47/108/47 21/104/21
f 32/109/32 7/110/7 9/111/9
f 7/110/7 32/109/32 44/112/44
f 7/110/7 44/112/44 43/113/43
f 7/110/7 26/114/26 17/115/17
f 26/114/26 7/110/7 43/113/43
f 88/116/88 92/117/92 98/118/98
f 92/117/92 102/119/102 98/118/98
f 100/120/100 102/119/102 91/121/91
f 98/118/98 102/119/102 100/120/100
f 95/122/95 100/120/100 91/121/91
f 100/120/100 95/122/95 97/123/97
f 98/118/98 100/120/100 97/123/97
f 97/123/97 83/124/83 88/125/88
f 97/123/97 88/125/88 98/118/98
f 102/126/102 96/127/96 91/128/91
f 97/129/97 95/130/95 83/131/83
f 92/132/92 88/133/88 85/134/85
f 89/135/89 83/136/83 95/137/95
f 4/138/4 6/139/6 85/140/85
f 84/141/84 4/138/4 85/140/85
f 85/140/85 88/142/88 84/141/84
f 4/138/4 84/141/84 2/143/2
f 2/143/2 84/141/84 13/144/13
f 13/145/13 84/141/84 81/146/81
f 81/146/81 84/141/84 86/147/86
f 86/147/86 84/141/84 3/148/3
f 83/149/83 84/150/84 88/151/88
f 83/149/83 17/152/17 11/153/11
f 83/149/83 11/153/11 3/154/3
f 83/149/83 3/154/3 84/150/84
f 1/155/1 81/156/81 86/157/86
f 1/155/1 86/157/86 5/158/5
f 81/156/81 1/155/1 13/159/13
f 5/158/5 86/157/86 3/160/3
f 40/161/40 35/162/35 4/163/4
f 40/161/40 45/164/45 57/165/57
f 40/161/40 4/163/4 2/166/2
f 40/161/40 2/166/2 45/164/45
f 45/164/45 2/166/2 34/167/34
f 34/167/34 2/166/2 13/168/13
f 34/169/34 13/170/13 1/171/1
f 8/172/8 1/171/1 5/173/5
f 34/169/34 1/171/1 8/172/8
f 8/172/8 5/174/5 33/175/33
f 33/175/33 5/174/5 3/176/3
f 33/175/33 3/176/3 19/177/19
f 19/177/19 3/176/3 11/178/11
f 8/172/8 33/175/33 34/169/34
f 45/179/45 34/169/34 33/175/33
f 45/179/45 33/175/33 52/180/52
f 52/180/52 33/175/33 19/177/19
f 23/181/23 19/177/19 11/178/11
f 23/181/23 11/178/11 17/182/17
f 29/183/29 48/184/48 41/185/41
f 48/184/48 29/186/29 35/187/35
f 49/188/49 41/185/41 48/184/48
f 41/185/41 49/188/49 36/189/36
f 55/190/55 69/191/69 53/192/53
f 55/190/55 38/193/38 49/188/49
f 36/189/36 49/188/49 38/193/38
f 38/193/38 55/190/55 53/192/53
f 38/193/38 53/192/53 42/194/42
f 41/185/41 36/189/36 46/195/46
f 46/195/46 36/189/36 37/196/37
f 67/197/67 49/198/49 56/199/56
f 49/198/49 48/200/48 56/199/56
f 48/200/48 35/201/35 56/199/56
f 59/202/59 35/201/35 40/203/40
f 35/201/35 59/202/59 56/199/56
f 56/199/56 59/202/59 67/204/67
f 59/202/59 63/205/63 67/206/67
f 67/206/67 63/205/63 57/207/57
f 63/205/63 59/202/59 40/203/40
f 57/207/57 63/205/63 40/203/40
f 57/207/57 45/208/45 52/209/52
f 62/210/62 57/207/57 52/209/52
f 55/211/55 49/212/49 71/213/71
f 71/213/71 49/212/49 67/214/67
f 71/213/71 67/214/67 70/215/70
f 71/213/71 70/215/70 74/216/74
f 57/217/57 62/218/62 70/215/70
f 57/217/57 70/215/70 67/214/67
f 39/219/39 42/220/42 54/221/54
f 39/219/39 54/221/54 44/222/44
f 42/220/42 53/223/53 54/221/54
f 53/223/53 61/224/61 54/221/54
f 61/224/61 53/223/53 69/225/69
f 44/222/44 54/221/54 43/226/43
f 69/227/69 55/228/55 71/229/71
f 69/227/69 71/229/71 73/230/73
f 73/230/73 71/229/71 68/231/68
f 71/229/71 64/232/64 68/231/68
f 68/231/68 64/232/64 65/233/65
f 47/234/47 39/235/39 44/236/44
f 32/237/32 21/238/21 44/239/44
f 47/240/47 44/239/44 21/238/21
f 26/241/26 23/242/23 17/243/17
f 23/242/23 26/241/26 50/244/50
f 50/244/50 26/241/26 51/245/51
f 51/245/51 58/246/58 50/244/50
f 60/247/60 51/245/51 61/248/61
f 61/248/61 51/245/51 43/249/43
f 61/248/61 43/249/43 54/250/54
f 43/249/43 51/245/51 26/241/26
f 23/242/23 50/244/50 19/251/19
f 19/251/19 50/244/50 52/252/52
f 61/253/61 69/254/69 68/255/68
f 61/253/61 68/255/68 60/256/60
f 60/256/60 68/255/68 72/257/72
f 60/256/60 72/257/72 66/258/66
f 58/259/58 60/256/60 66/258/66
f 51/260/51 60/256/60 58/259/58
f 58/259/58 66/258/66 50/261/50
f 50/261/50 66/258/66 62/262/62
f 52/263/52 50/261/50 62/262/62
f 62/262/62 66/258/66 70/264/70
f 70/264/70 66/258/66 72/257/72
f 70/264/70 72/257/72 74/265/74
f 72/257/72 68/255/68 74/265/74
f 68/266/68 65/267/65 74/268/74
f 68/269/68 69/270/69 73/271/73
f 65/272/65 64/273/64 71/213/71
f 65/272/65 71/213/71 74/216/74
